<svg xmlns="http://www.w3.org/2000/svg" width="640" height="640" viewBox="0 0 640 640"><rect width="100%" height="100%" fill="#26282b"/>
<rect x="32.0" y="77.0" width="576.0" height="30.0" fill="#3a3d41"/>
<rect x="32.0" y="215.0" width="576.0" height="30.0" fill="#3a3d41"/>
<rect x="32.0" y="404.0" width="576.0" height="36.0" fill="#3a3d41"/>
<rect x="32.0" y="539.0" width="576.0" height="30.0" fill="#3a3d41"/>
<rect x="77.0" y="77.0" width="30.0" height="492.0" fill="#3a3d41"/>
<rect x="218.0" y="77.0" width="24.0" height="492.0" fill="#3a3d41"/>
<rect x="398.0" y="77.0" width="24.0" height="492.0" fill="#3a3d41"/>
<rect x="533.0" y="77.0" width="30.0" height="492.0" fill="#3a3d41"/>
<rect x="302.0" y="338.0" width="36.0" height="84.0" fill="#3a3d41"/>
<rect x="35.9" y="31.5" width="40.1" height="31.0" fill="#8c8f93"/>
<rect x="89.5" y="35.4" width="28.9" height="23.1" fill="#8c8f93"/>
<rect x="136.6" y="36.7" width="30.8" height="20.6" fill="#8c8f93"/>
<rect x="185.4" y="36.7" width="29.2" height="20.6" fill="#8c8f93"/>
<rect x="233.5" y="35.4" width="28.9" height="23.1" fill="#8c8f93"/>
<rect x="280.6" y="36.7" width="30.8" height="20.6" fill="#8c8f93"/>
<rect x="329.4" y="36.7" width="29.2" height="20.6" fill="#8c8f93"/>
<rect x="377.5" y="35.4" width="28.9" height="23.1" fill="#8c8f93"/>
<rect x="424.6" y="36.7" width="30.8" height="20.6" fill="#8c8f93"/>
<rect x="473.4" y="36.7" width="29.2" height="20.6" fill="#8c8f93"/>
<rect x="521.5" y="35.4" width="28.9" height="23.1" fill="#8c8f93"/>
<rect x="567.9" y="30.9" width="32.1" height="32.1" fill="#8c8f93"/>
<rect x="142.4" y="121.5" width="40.1" height="31.0" fill="#8c8f93"/>
<rect x="341.5" y="125.4" width="28.9" height="23.1" fill="#8c8f93"/>
<rect x="461.4" y="124.8" width="32.1" height="24.5" fill="#8c8f93"/>
<rect x="142.4" y="169.5" width="40.1" height="31.0" fill="#8c8f93"/>
<rect x="341.5" y="173.4" width="28.9" height="23.1" fill="#8c8f93"/>
<rect x="461.4" y="172.8" width="32.1" height="24.5" fill="#8c8f93"/>
<rect x="147.9" y="263.4" width="29.2" height="23.1" fill="#8c8f93"/>
<rect x="463.0" y="263.4" width="28.9" height="23.1" fill="#8c8f93"/>
<rect x="456.9" y="364.2" width="41.1" height="25.6" fill="#8c8f93"/>
<rect x="146.4" y="454.8" width="32.1" height="24.5" fill="#8c8f93"/>
<rect x="282.2" y="455.4" width="39.5" height="23.1" fill="#8c8f93"/>
<rect x="457.4" y="451.5" width="40.1" height="31.0" fill="#8c8f93"/>
<rect x="147.7" y="493.2" width="29.6" height="31.6" fill="#8c8f93"/>
<rect x="288.0" y="499.0" width="27.9" height="19.9" fill="#8c8f93"/>
<rect x="461.4" y="492.9" width="32.1" height="32.1" fill="#8c8f93"/>
<rect x="41.2" y="583.2" width="29.6" height="31.6" fill="#8c8f93"/>
<rect x="90.0" y="589.0" width="27.9" height="19.9" fill="#8c8f93"/>
<rect x="136.2" y="586.8" width="31.6" height="24.4" fill="#8c8f93"/>
<rect x="186.0" y="587.9" width="27.9" height="22.3" fill="#8c8f93"/>
<rect x="234.0" y="589.0" width="27.9" height="19.9" fill="#8c8f93"/>
<rect x="280.2" y="586.8" width="31.6" height="24.4" fill="#8c8f93"/>
<rect x="330.0" y="587.9" width="27.9" height="22.3" fill="#8c8f93"/>
<rect x="378.0" y="589.0" width="27.9" height="19.9" fill="#8c8f93"/>
<rect x="424.2" y="586.8" width="31.6" height="24.4" fill="#8c8f93"/>
<rect x="474.0" y="587.9" width="27.9" height="22.3" fill="#8c8f93"/>
<rect x="522.0" y="589.0" width="27.9" height="19.9" fill="#8c8f93"/>
<rect x="563.9" y="583.5" width="40.1" height="31.0" fill="#8c8f93"/>
<rect x="30.9" y="144.9" width="32.1" height="32.1" fill="#8c8f93"/>
<rect x="35.5" y="288.9" width="23.0" height="23.3" fill="#8c8f93"/>
<rect x="35.5" y="336.9" width="23.0" height="23.1" fill="#8c8f93"/>
<rect x="34.8" y="473.4" width="24.5" height="32.1" fill="#8c8f93"/>
<rect x="120.9" y="144.9" width="32.1" height="32.1" fill="#8c8f93"/>
<rect x="125.5" y="276.9" width="23.0" height="23.3" fill="#8c8f93"/>
<rect x="121.2" y="474.7" width="31.6" height="29.6" fill="#8c8f93"/>
<rect x="169.2" y="146.2" width="31.6" height="29.6" fill="#8c8f93"/>
<rect x="171.7" y="272.2" width="26.5" height="32.6" fill="#8c8f93"/>
<rect x="168.9" y="473.4" width="32.1" height="32.1" fill="#8c8f93"/>
<rect x="259.2" y="473.4" width="31.6" height="32.1" fill="#8c8f93"/>
<rect x="351.7" y="144.7" width="26.5" height="32.6" fill="#8c8f93"/>
<rect x="439.2" y="146.2" width="31.6" height="29.6" fill="#8c8f93"/>
<rect x="439.2" y="284.4" width="31.6" height="32.1" fill="#8c8f93"/>
<rect x="441.7" y="332.2" width="26.5" height="32.6" fill="#8c8f93"/>
<rect x="439.5" y="469.4" width="31.0" height="40.1" fill="#8c8f93"/>
<rect x="486.9" y="144.9" width="32.1" height="32.1" fill="#8c8f93"/>
<rect x="491.4" y="285.9" width="23.1" height="29.2" fill="#8c8f93"/>
<rect x="491.4" y="334.0" width="23.1" height="28.9" fill="#8c8f93"/>
<rect x="490.8" y="473.4" width="24.5" height="32.1" fill="#8c8f93"/>
<rect x="576.9" y="144.9" width="32.1" height="32.1" fill="#8c8f93"/>
<rect x="581.4" y="341.4" width="23.1" height="29.2" fill="#8c8f93"/>
<rect x="577.2" y="474.7" width="31.6" height="29.6" fill="#8c8f93"/>
<rect x="281.0" y="281.0" width="78.0" height="111.0" fill="#c8552b"/>
<text x="320" y="338" fill="#fff" font-size="13" font-family="sans-serif" text-anchor="middle">DEPOT</text>
<rect x="280.1" y="169.1" width="31.8" height="31.8" fill="#e0b341"/>
<text x="296" y="224" fill="#e0b341" font-size="12" font-family="sans-serif" text-anchor="middle">14 Larkspur Lane</text>
<rect x="121.1" y="334.1" width="31.8" height="31.8" fill="#e0b341"/>
<text x="137" y="389" fill="#e0b341" font-size="12" font-family="sans-serif" text-anchor="middle">3 Tallow Court</text>
<rect x="364.1" y="493.1" width="31.8" height="31.8" fill="#e0b341"/>
<text x="380" y="548" fill="#e0b341" font-size="12" font-family="sans-serif" text-anchor="middle">22 Ashgrove Road</text>
<rect x="577.1" y="274.1" width="31.8" height="31.8" fill="#e0b341"/>
<text x="593" y="329" fill="#e0b341" font-size="12" font-family="sans-serif" text-anchor="middle">8 Miller Terrace</text>
</svg>